<?xml version="1.0" standalone="no"?>
<!DOCTYPE svg PUBLIC "-//W3C//DTD SVG 20010904//EN"
 "http://www.w3.org/TR/2001/REC-SVG-20010904/DTD/svg10.dtd">
<svg version="1.0" xmlns="http://www.w3.org/2000/svg"
 width="440.000000pt" height="139.000000pt" viewBox="0 0 440.000000 139.000000"
 preserveAspectRatio="xMidYMid meet">

<g transform="translate(0.000000,139.000000) scale(0.100000,-0.100000)"
fill="gold" stroke="none">
<path d="M418 1128 l-248 -143 3 -294 2 -295 245 -143 c139 -81 253 -141 262
-139 10 2 126 66 258 143 l240 138 0 295 0 295 -240 139 c-133 76 -248 140
-258 142 -9 2 -128 -60 -264 -138z m430 2 l162 -93 0 -347 0 -346 -39 -22
c-21 -12 -41 -19 -45 -15 -3 3 -6 143 -6 310 0 340 0 342 -68 408 -43 41 -157
115 -177 115 -20 0 -134 -74 -177 -115 -68 -66 -68 -68 -68 -415 0 -170 -2
-310 -5 -310 -3 0 -24 9 -45 20 l-40 20 0 349 0 349 53 30 c28 16 103 60 166
96 63 36 117 64 120 62 3 -1 79 -45 169 -96z m-65 -97 c55 -40 97 -97 97 -130
0 -29 -3 -29 -37 3 -42 40 -143 104 -164 104 -23 0 -110 -51 -166 -97 -42 -33
-43 -34 -43 -11 0 50 75 130 165 176 46 23 60 19 148 -45z m355 -341 l2 -270
-34 -21 c-18 -12 -36 -21 -40 -21 -3 0 -6 142 -6 315 l0 315 38 -23 37 -24 3
-271z m-838 -2 c0 -241 -3 -310 -12 -310 -7 0 -28 9 -45 20 l-33 20 0 273 0
273 33 17 c60 30 57 44 57 -293z m431 252 c102 -65 149 -123 149 -182 l0 -31
-57 46 c-31 26 -78 57 -104 70 l-47 24 -56 -34 c-30 -18 -76 -50 -101 -70
l-45 -37 0 31 c0 41 19 78 62 118 37 35 126 93 143 93 6 0 31 -13 56 -28z m4
-151 c28 -16 70 -50 95 -75 l45 -47 3 -199 3 -199 -103 -60 -102 -60 -66 36
c-36 20 -82 47 -102 60 l-38 23 0 186 c0 203 3 215 62 271 37 35 126 93 142
93 6 0 34 -13 61 -29z"/>
<path d="M1310 801 c0 -197 2 -231 15 -231 12 0 15 30 17 191 l3 191 154 -191
c85 -105 158 -191 163 -191 4 0 8 104 8 230 0 198 -2 230 -15 230 -13 0 -15
-28 -15 -190 0 -104 -3 -190 -7 -189 -5 0 -73 81 -153 180 -80 99 -151 185
-157 191 -10 8 -13 -37 -13 -221z"/>
<path d="M4228 998 c-1 -18 0 -59 1 -90 4 -77 -3 -85 -44 -49 -40 35 -107 49
-158 32 -118 -39 -145 -212 -46 -296 59 -49 151 -45 205 9 37 37 44 36 44 -6
0 -15 5 -28 10 -28 6 0 10 83 10 230 0 147 -4 230 -10 230 -5 0 -11 -15 -12
-32z m-74 -143 c44 -21 66 -63 66 -125 0 -84 -54 -140 -135 -140 -85 0 -135
52 -135 140 0 88 47 139 128 140 24 0 58 -7 76 -15z"/>
<path d="M1846 877 c-64 -36 -81 -68 -81 -147 0 -54 4 -75 21 -96 33 -45 66
-64 119 -70 98 -11 185 68 185 166 0 59 -38 122 -90 148 -56 28 -104 28 -154
-1z m144 -20 c40 -20 70 -74 70 -126 0 -82 -56 -141 -135 -141 -131 0 -188
158 -91 248 30 27 43 32 83 32 27 0 59 -6 73 -13z"/>
<path d="M2590 889 c-63 -25 -100 -85 -100 -162 0 -127 126 -204 240 -145 53
27 79 68 86 135 14 119 -114 216 -226 172z m138 -39 c113 -69 61 -260 -71
-260 -78 0 -127 42 -142 122 -9 47 22 115 62 140 38 24 110 23 151 -2z"/>
<path d="M2971 882 c-113 -57 -113 -227 0 -284 19 -10 51 -18 72 -18 44 0 92
-22 107 -49 5 -11 10 -37 10 -59 0 -57 -33 -85 -109 -90 -74 -5 -115 14 -132
63 -16 43 -43 49 -33 8 16 -65 73 -103 155 -103 84 0 138 42 146 114 6 53 -11
86 -58 115 l-30 18 26 17 c33 21 64 89 65 136 0 19 -9 51 -19 71 -18 33 -18
37 -3 52 21 22 7 35 -16 14 -16 -14 -22 -15 -57 -2 -54 19 -83 18 -124 -3z
m137 -32 c38 -23 52 -54 52 -116 0 -36 -6 -51 -33 -80 -101 -110 -267 13 -202
150 30 64 117 86 183 46z"/>
<path d="M3366 890 c-16 -5 -39 -19 -52 -31 l-24 -22 0 26 c0 18 -5 27 -15 27
-13 0 -15 -22 -13 -157 2 -114 6 -157 16 -161 9 -3 12 21 12 98 0 116 13 156
61 184 22 13 43 17 70 13 35 -5 61 5 42 16 -19 11 -70 15 -97 7z"/>
<path d="M3629 890 c-68 -20 -119 -90 -119 -162 0 -55 39 -118 90 -145 69 -37
136 -27 184 26 23 25 35 20 28 -14 -3 -18 0 -25 12 -25 14 0 16 19 16 160 0
136 -2 160 -15 160 -10 0 -15 -10 -15 -32 l0 -32 -27 26 c-16 14 -46 31 -68
37 -45 12 -50 12 -86 1z m118 -37 c38 -17 72 -76 73 -122 0 -43 -38 -108 -74
-125 -101 -48 -206 15 -206 122 0 112 104 174 207 125z"/>
<path d="M2144 873 c3 -10 32 -81 64 -158 69 -165 84 -177 119 -93 11 29 42
102 67 161 36 85 42 108 29 105 -11 -2 -36 -51 -73 -140 -31 -76 -59 -140 -61
-143 -3 -3 -32 60 -64 140 -36 88 -64 145 -73 145 -8 0 -11 -7 -8 -17z"/>
</g>
</svg>
